<svg xmlns="http://www.w3.org/2000/svg" viewBox="0 0 169.84 90.02"><defs><style>.cls-1{fill:#004596;}</style></defs><title>logo2</title><g id="katman_2" data-name="katman 2"><g id="katman_1-2" data-name="katman 1"><g id="katman_2-2" data-name="katman 2"><g id="katman_1-2-2" data-name="katman 1-2"><polygon class="cls-1" points="65.06 35 75.28 30.04 93.8 44.53 86 22.55 105.32 9.41 82.28 9.97 75.72 0 79.93 12.95 94.05 12.95 82.65 21.12 87.24 35.3 75.65 26.14 65.06 35"/><polygon class="cls-1" points="68.28 29.3 75.41 23.41 82.78 29.3 79.62 20.75 87.24 15.3 78.19 15.3 75.59 7.06 72.62 15.48 64.44 15.48 71.19 20.19 68.28 29.3"/><path class="cls-1" d="M22.76,57.28c.09.22.24.65-.34.81l-4.34,1.17a.61.61,0,0,1-.78-.34.14.14,0,0,0,0-.06A6.14,6.14,0,0,0,5.82,62a6,6,0,0,0,5.85,6.15H12a6.36,6.36,0,0,0,5.27-2.54h-5a.72.72,0,0,1-.77-.67v-3a.72.72,0,0,1,.67-.77H22a.72.72,0,0,1,.77.67.17.17,0,0,1,0,.1V72a.72.72,0,0,1-.66.77H18.39a.74.74,0,0,1-.77-.69V70.75a8.54,8.54,0,0,1-6.57,2.48A11.06,11.06,0,0,1,0,62.16v-.24c0-6.28,5.11-11.3,11.83-11.3C16.78,50.62,21.18,53.16,22.76,57.28Z"/><path class="cls-1" d="M36.28,72.76a1.07,1.07,0,0,1-1.09-.64l-3.37-5.48H29.44v5.5a.59.59,0,0,1-.56.62H25.6a.56.56,0,0,1-.61-.5.28.28,0,0,1,0-.09V56a.6.6,0,0,1,.6-.6h8c3.69,0,6.1,2.48,6.1,5.48a5.3,5.3,0,0,1-3.35,5l3.87,6a.54.54,0,0,1-.09.76.57.57,0,0,1-.38.11ZM33,63.07a2,2,0,0,0,2-1.93,1.85,1.85,0,0,0-1.86-1.84H29.44v3.76Z"/><path class="cls-1" d="M55.13,55.41a.58.58,0,0,1,.62.56v2.91a.57.57,0,0,1-.53.62h-9v2.61h4.7a.57.57,0,0,1,.62.52.27.27,0,0,1,0,.09v2.73a.57.57,0,0,1-.53.62H46.19v2.6h9.19a.58.58,0,0,1,.62.56v2.91a.59.59,0,0,1-.56.62H42.38a.58.58,0,0,1-.61-.55V56a.6.6,0,0,1,.58-.6H55.13Z"/><path class="cls-1" d="M71,55.41a.58.58,0,0,1,.62.56v2.91a.57.57,0,0,1-.53.62H62v2.61h4.8a.58.58,0,0,1,.62.54v2.8a.59.59,0,0,1-.56.62H62.09v2.6h9.19a.58.58,0,0,1,.62.54v2.93a.57.57,0,0,1-.53.62H58.28a.59.59,0,0,1-.62-.56V56a.6.6,0,0,1,.6-.6H71Z"/><path class="cls-1" d="M78,62.45v9.72a.54.54,0,0,1-.48.59H74.15a.56.56,0,0,1-.61-.5.28.28,0,0,1,0-.09V56a.6.6,0,0,1,.6-.6h4.24a.83.83,0,0,1,.84.5l5.57,9.39V56a.62.62,0,0,1,.6-.6h3.25a.62.62,0,0,1,.61.6V72.17a.58.58,0,0,1-.57.59H85.13a1.38,1.38,0,0,1-1.29-.62Z"/><path class="cls-1" d="M95.49,61.92A11.39,11.39,0,0,1,107,50.62h.19c4.8,0,8.89,2.54,10.47,6.66.09.22.24.65-.34.81L113,59.26a.61.61,0,0,1-.78-.34.14.14,0,0,0,0-.06,5.45,5.45,0,0,0-5-3.07,6.14,6.14,0,0,0,0,12.26,5.44,5.44,0,0,0,5-3.06.6.6,0,0,1,.74-.42l.06,0,4.34,1.17c.58.16.43.59.34.81-1.58,4.12-5.67,6.66-10.47,6.66A11.39,11.39,0,0,1,95.5,62.18,2.26,2.26,0,0,1,95.49,61.92Z"/><path class="cls-1" d="M122.36,72.22a.67.67,0,0,1-.62.54h-3.35c-.49,0-.77-.4-.54-1L123.17,56a.84.84,0,0,1,.77-.62h5a.81.81,0,0,1,.77.62L135,71.72c.22.66-.08,1-.57,1H131a.6.6,0,0,1-.62-.54l-1-3.1H123.3Zm5.87-6.82-1.88-6.14-1.89,6.14Z"/><path class="cls-1" d="M147.65,72.76a1.07,1.07,0,0,1-1.09-.64l-3.37-5.48h-2.38v5.5a.59.59,0,0,1-.56.62H137a.56.56,0,0,1-.61-.5.28.28,0,0,1,0-.09V56a.6.6,0,0,1,.6-.6h8c3.69,0,6.09,2.48,6.09,5.48a5.29,5.29,0,0,1-3.34,5l3.86,6a.54.54,0,0,1-.09.76.57.57,0,0,1-.38.11Zm-3.27-9.69a2,2,0,0,0,2.06-1.93,1.85,1.85,0,0,0-1.86-1.84h-3.76v3.76Z"/><path class="cls-1" d="M161.1,55.41c5.11,0,8.73,3.45,8.73,8.63a8.33,8.33,0,0,1-7.94,8.72h-8.17a.59.59,0,0,1-.62-.56V56a.6.6,0,0,1,.6-.6h7.4ZM161,68.67a4.38,4.38,0,0,0,4.18-4.58s0-.06,0-.09a4.3,4.3,0,0,0-4.09-4.5h-3.52v9.17Z"/><path class="cls-1" d="M18.18,79.91a2,2,0,0,1,2.3,1.89,1.78,1.78,0,0,1-1.14,1.7,2,2,0,0,1,1.57,1.94,2.21,2.21,0,0,1-2.23,2.19l-.28,0H15.09a.21.21,0,0,1-.19-.19V80.1a.21.21,0,0,1,.19-.19Zm0,.67H15.7v2.65h2.44c.89,0,1.52-.45,1.52-1.33s-.61-1.32-1.52-1.32Zm-2.44,3.3v3.06h2.69a1.54,1.54,0,1,0,.35-3.06h-3Z"/><path class="cls-1" d="M24.29,82.36a2.06,2.06,0,0,1,1.91,1.11v-.78a.19.19,0,0,1,.19-.18h.39a.18.18,0,0,1,.18.18h0v4.73a.19.19,0,0,1-.18.19h-.39a.21.21,0,0,1-.19-.19v-.78a2.1,2.1,0,0,1-1.91,1.11,2.7,2.7,0,0,1,0-5.39Zm.06,4.69a2,2,0,1,0-1.85-2.14.66.66,0,0,0,0,.14,1.89,1.89,0,0,0,1.76,2Z"/><path class="cls-1" d="M29.38,89.24c-.1,0-.17-.07-.12-.2l.51-1.31a2.77,2.77,0,0,1-1.61-.7c-.17-.17-.17-.31-.05-.41l.19-.16c.12-.1.22,0,.31,0a2.31,2.31,0,0,0,1.59.64c.84,0,1.28-.44,1.28-.88s-.34-.74-1.05-.87l-.89-.17c-.92-.16-1.4-.61-1.4-1.36a1.83,1.83,0,0,1,2-1.49A2.8,2.8,0,0,1,32,83a.19.19,0,0,1,0,.28h0l-.19.18a.22.22,0,0,1-.31,0h0A2.3,2.3,0,0,0,30.08,83c-.75,0-1.16.37-1.16.82s.24.62.85.74l1,.19c1,.21,1.53.62,1.53,1.45a1.7,1.7,0,0,1-1.73,1.54L30,89.1a.22.22,0,0,1-.21.15Z"/><path class="cls-1" d="M34.74,87.61a.25.25,0,0,1-.25-.18l-1.86-4.72a.17.17,0,0,1,.12-.2h.5a.2.2,0,0,1,.21.15L35,86.86l1.57-4.2a.21.21,0,0,1,.21-.15h.46a.15.15,0,0,1,.16.13.19.19,0,0,1,0,.07l-1.84,4.72a.24.24,0,0,1-.25.18Z"/><path class="cls-1" d="M39.07,85.41a1.48,1.48,0,0,0,1.26,1.67,1.3,1.3,0,0,0,.34,0,1.57,1.57,0,0,0,1.66-1.47.74.74,0,0,0,0-.21V82.69a.19.19,0,0,1,.18-.18h.39a.19.19,0,0,1,.19.18v4.73a.2.2,0,0,1-.19.19h-.39a.19.19,0,0,1-.18-.18v-.71a2.21,2.21,0,0,1-4-.81,2.67,2.67,0,0,1,0-.4V82.69a.19.19,0,0,1,.18-.18h.39a.19.19,0,0,1,.19.18Z"/><path class="cls-1" d="M46.87,82.49a.18.18,0,0,1,.18.18h0v.4a.16.16,0,0,1-.15.17h-.21c-.78,0-1.39.47-1.39,1.75v2.43a.18.18,0,0,1-.18.18h-.4a.2.2,0,0,1-.18-.19V82.69a.19.19,0,0,1,.18-.18h.37a.18.18,0,0,1,.17.18v.76a1.56,1.56,0,0,1,1.43-1Z"/><path class="cls-1" d="M48.56,85.41a1.48,1.48,0,0,0,1.26,1.67,1.3,1.3,0,0,0,.34,0,1.57,1.57,0,0,0,1.66-1.47.74.74,0,0,0,0-.21V82.69a.19.19,0,0,1,.19-.18h.38a.19.19,0,0,1,.19.18v4.73a.2.2,0,0,1-.19.19H52a.19.19,0,0,1-.19-.18v-.71a2.21,2.21,0,0,1-4-.81,2.67,2.67,0,0,1,0-.4V82.69a.19.19,0,0,1,.18-.18h.4a.18.18,0,0,1,.18.18h0Z"/><path class="cls-1" d="M58.67,86.64a3.36,3.36,0,0,1-2.49,1.11,2.2,2.2,0,0,1-2.42-2s0-.07,0-.11a2.45,2.45,0,0,1,1.44-2.13l.26-.15a2.61,2.61,0,0,1-.89-1.83,1.81,1.81,0,0,1,1.79-1.81h.12a1.64,1.64,0,0,1,1.81,1.45.86.86,0,0,1,0,.16c0,.7-.4,1.29-1.44,1.94l-.3.19,2.08,2.08a4.87,4.87,0,0,0,.7-2.29.18.18,0,0,1,.18-.18h.42a.18.18,0,0,1,.18.18h0a6.39,6.39,0,0,1-1,2.79l1.34,1.33a.1.1,0,0,1-.06.18h-.67a.31.31,0,0,1-.22-.09Zm-.48-.47-2.29-2.3-.21.14c-.82.58-1.15,1-1.15,1.65a1.56,1.56,0,0,0,1.67,1.43h0A2.59,2.59,0,0,0,58.19,86.17Zm-2.1-3.12.32-.21c.79-.52,1.15-.92,1.15-1.43a1,1,0,0,0-1-1h-.1a1.16,1.16,0,0,0-1.17,1.15v0A2.13,2.13,0,0,0,56.09,83.05Z"/><path class="cls-1" d="M64.17,79.91c2.68,0,4.11,1.56,4.11,3.85s-1.43,3.85-4.11,3.85H61.83a.21.21,0,0,1-.19-.19V80.1a.21.21,0,0,1,.19-.19Zm.11,7a3.12,3.12,0,1,0,0-6.24H62.43v6.24Z"/><path class="cls-1" d="M71.67,82.36a2.08,2.08,0,0,1,1.92,1.11v-.78a.19.19,0,0,1,.19-.18h.39a.18.18,0,0,1,.18.18h0v4.73a.19.19,0,0,1-.18.19h-.39a.21.21,0,0,1-.19-.19v-.78a2.12,2.12,0,0,1-1.92,1.11,2.7,2.7,0,0,1,0-5.39Zm.07,4.69a2,2,0,1,0-1.85-2.14.66.66,0,0,0,0,.14,1.89,1.89,0,0,0,1.76,2Z"/><path class="cls-1" d="M79.88,84.77a1.52,1.52,0,0,0-1.31-1.7,1.58,1.58,0,0,0-.31,0,1.6,1.6,0,0,0-1.7,1.49v2.88a.18.18,0,0,1-.18.18H76a.21.21,0,0,1-.19-.19V82.69a.19.19,0,0,1,.19-.18h.39a.18.18,0,0,1,.18.18v.71a2,2,0,0,1,1.88-1,2.07,2.07,0,0,1,2.2,1.95,1.31,1.31,0,0,1,0,.28v2.83a.19.19,0,0,1-.19.18h-.38a.19.19,0,0,1-.19-.18Z"/><path class="cls-1" d="M82.21,87.61a.21.21,0,0,1-.19-.19V82.69a.19.19,0,0,1,.19-.18h.4a.17.17,0,0,1,.17.17h0v4.73a.18.18,0,0,1-.17.19h-.4Z"/><path class="cls-1" d="M85.2,89.24c-.1,0-.16-.07-.12-.2l.52-1.31A2.75,2.75,0,0,1,84,87c-.16-.17-.16-.31,0-.41l.19-.16c.12-.1.21,0,.3,0a2.33,2.33,0,0,0,1.6.64c.83,0,1.27-.44,1.27-.88s-.34-.74-1-.87l-.89-.17c-.93-.16-1.41-.61-1.41-1.36a1.84,1.84,0,0,1,2-1.49,2.74,2.74,0,0,1,1.86.64.2.2,0,0,1,0,.27l0,0-.18.18a.22.22,0,0,1-.31,0h0A2.31,2.31,0,0,0,85.91,83c-.75,0-1.17.37-1.17.82s.24.62.86.74l1,.19c1,.21,1.52.62,1.52,1.45a1.69,1.69,0,0,1-1.72,1.54l-.61,1.36a.22.22,0,0,1-.21.15Z"/><path class="cls-1" d="M89.9,87.43a.18.18,0,0,1-.18.18h-.39a.21.21,0,0,1-.19-.19V82.69a.19.19,0,0,1,.19-.18h.39a.18.18,0,0,1,.18.18v.7a1.93,1.93,0,0,1,1.79-1,1.85,1.85,0,0,1,1.82,1.17,2.09,2.09,0,0,1,2-1.17,2,2,0,0,1,2.12,1.88,1.74,1.74,0,0,1,0,.32v2.86a.19.19,0,0,1-.19.18H97a.19.19,0,0,1-.19-.18v-2.7c0-1-.48-1.67-1.5-1.67a1.53,1.53,0,0,0-1.58,1.47,1.34,1.34,0,0,0,0,.2v2.7a.19.19,0,0,1-.19.18h-.38a.19.19,0,0,1-.19-.18v-2.7c0-1-.48-1.67-1.48-1.67a1.53,1.53,0,0,0-1.6,1.45,1.62,1.62,0,0,0,0,.22Z"/><path class="cls-1" d="M101.2,82.36a2.06,2.06,0,0,1,1.91,1.11v-.78a.19.19,0,0,1,.19-.18h.4a.18.18,0,0,1,.17.18v4.73a.19.19,0,0,1-.17.19h-.4a.21.21,0,0,1-.19-.19v-.78a2.1,2.1,0,0,1-1.91,1.11,2.7,2.7,0,0,1,0-5.39Zm.06,4.69a2,2,0,1,0-1.85-2.14.66.66,0,0,0,0,.14,1.89,1.89,0,0,0,1.76,2Z"/><path class="cls-1" d="M109.4,84.77a1.5,1.5,0,0,0-1.29-1.7,1.69,1.69,0,0,0-.32,0,1.62,1.62,0,0,0-1.71,1.5v2.87a.18.18,0,0,1-.17.18h-.4a.21.21,0,0,1-.19-.19V82.69a.19.19,0,0,1,.19-.18h.4a.18.18,0,0,1,.17.18v.71a2,2,0,0,1,1.88-1,2.07,2.07,0,0,1,2.2,1.95,1.31,1.31,0,0,1,0,.28v2.83a.18.18,0,0,1-.18.18h-.39a.19.19,0,0,1-.19-.18Z"/><path class="cls-1" d="M112.77,87.61a1.1,1.1,0,0,1-1.23-.93,1.5,1.5,0,0,1,0-.3V80.1a.19.19,0,0,1,.18-.19h.4a.19.19,0,0,1,.18.19v6.19c0,.43.18.67.66.67h.25a.17.17,0,0,1,.19.17v.28a.2.2,0,0,1-.2.2h-.43Z"/><path class="cls-1" d="M114.33,87.61a.21.21,0,0,1-.19-.19V82.69a.19.19,0,0,1,.19-.18h.4a.17.17,0,0,1,.17.17h0v4.73a.18.18,0,0,1-.17.19h-.4Z"/><path class="cls-1" d="M120.5,87.64v-1a2.1,2.1,0,0,1-1.91,1.09,2.68,2.68,0,0,1,0-5.35,2.12,2.12,0,0,1,1.92,1.11V82.7a.19.19,0,0,1,.19-.18h.39a.18.18,0,0,1,.18.18h0v5A2.32,2.32,0,0,1,118.93,90l-.3,0a2.28,2.28,0,0,1-2.46-1.63.14.14,0,0,1,.07-.17h.05l.39-.11a.16.16,0,0,1,.21.08.08.08,0,0,1,0,0,1.88,1.88,0,0,0,2.47,1,1.86,1.86,0,0,0,1.13-1.57Zm-1.86-.6a2,2,0,1,0-1.85-2.14.66.66,0,0,0,0,.14,1.89,1.89,0,0,0,1.8,2h.06Zm-1.32-6.36v-.13a.12.12,0,0,1,.09-.11h.47a.09.09,0,0,1,.09.09v.09a.61.61,0,0,0,.58.64h.09a.63.63,0,0,0,.7-.53v-.2a.11.11,0,0,1,.09-.09h.45c.07,0,.1,0,.1.11v.13a1.34,1.34,0,0,1-2.66,0Z"/><path class="cls-1" d="M122.9,87.61a.21.21,0,0,1-.19-.19V82.69a.19.19,0,0,1,.19-.18h.39a.18.18,0,0,1,.18.18h0v4.73a.19.19,0,0,1-.18.19Z"/><path class="cls-1" d="M131.53,86.39a.28.28,0,0,1-.27-.17l-2.68-5.42v6.62a.19.19,0,0,1-.18.19H128a.21.21,0,0,1-.19-.19V80.1a.21.21,0,0,1,.19-.19h.85a.26.26,0,0,1,.26.16l2.61,5.31,2.61-5.31a.29.29,0,0,1,.27-.16h.83a.19.19,0,0,1,.18.19v7.32a.19.19,0,0,1-.18.19H135a.18.18,0,0,1-.19-.17V80.8l-2.7,5.42a.28.28,0,0,1-.27.17Z"/><path class="cls-1" d="M142.11,84.94v.14a.18.18,0,0,1-.17.19h-4.23a1.88,1.88,0,0,0,1.89,1.81,2,2,0,0,0,1.55-.75.17.17,0,0,1,.24,0s0,0,0,0l.32.2a.16.16,0,0,1,.06.22h0a2.54,2.54,0,0,1-2.2,1,2.7,2.7,0,0,1,0-5.39,2.48,2.48,0,0,1,2.53,2.45Zm-.75-.23a1.78,1.78,0,0,0-1.82-1.7,1.83,1.83,0,0,0-1.81,1.7Z"/><path class="cls-1" d="M145.46,82.49a.18.18,0,0,1,.18.18h0v.4a.16.16,0,0,1-.15.17h-.2c-.79,0-1.4.47-1.4,1.75v2.43a.19.19,0,0,1-.18.18h-.39a.21.21,0,0,1-.19-.19V82.69a.19.19,0,0,1,.19-.18h.36a.18.18,0,0,1,.17.18v.76a1.55,1.55,0,0,1,1.44-1Z"/><path class="cls-1" d="M147.23,87.42a.19.19,0,0,1-.17.19h-.4a.21.21,0,0,1-.19-.19V80.1a.21.21,0,0,1,.19-.19h.4a.19.19,0,0,1,.17.19v4.33h.67l1.7-1.81a.23.23,0,0,1,.19-.11h.62c.1,0,.14.09.07.17l-2,2.07,2.32,2.67a.12.12,0,0,1-.08.19h-.56a.39.39,0,0,1-.3-.14l-2-2.39h-.6Z"/><path class="cls-1" d="M156.11,84.94v.14a.18.18,0,0,1-.17.19h-4.23a1.89,1.89,0,0,0,1.89,1.81,2,2,0,0,0,1.55-.75.2.2,0,0,1,.26,0v0l.31.2a.16.16,0,0,1,.06.22h0a2.72,2.72,0,0,1-4.85-1.65,2.62,2.62,0,0,1,2.51-2.71h.11a2.48,2.48,0,0,1,2.56,2.4Zm-.75-.23a1.77,1.77,0,0,0-1.81-1.7,1.82,1.82,0,0,0-1.82,1.7Z"/><path class="cls-1" d="M157.62,87h3.14a.19.19,0,0,1,.18.19v.28a.19.19,0,0,1-.18.19h-3.95a.19.19,0,0,1-.18-.19v-.26a.3.3,0,0,1,.09-.24l3.11-3.75H157a.21.21,0,0,1-.19-.19v-.29a.19.19,0,0,1,.19-.18h3.64a.19.19,0,0,1,.19.18V83a.26.26,0,0,1-.1.23Z"/><path class="cls-1" d="M161.72,80.73a.62.62,0,0,1,.63-.61.62.62,0,1,1-.63.63Zm.42,6.88a.21.21,0,0,1-.19-.19V82.69a.19.19,0,0,1,.19-.18h.39a.18.18,0,0,1,.18.18v4.73a.19.19,0,0,1-.18.19Z"/></g></g></g></g></svg>